<svg fill="#fff" height="16" viewBox="0 0 16 16" width="16" xmlns="http://www.w3.org/2000/svg"><path d="m2 15.5v-13.5a2 2 0 0 1 2-2h8a2 2 0 0 1 2 2v13.5a.5.5 0 0 1 -.74.439l-5.26-2.87-5.26 2.87a.5.5 0 0 1 -.74-.439zm6.16-11.4a.178.178 0 0 0 -.32 0l-.634 1.285a.178.178 0 0 1 -.134.098l-1.42.206a.178.178 0 0 0 -.098.303l1.026 1.001c.042.041.061.1.051.158l-.241 1.414a.178.178 0 0 0 .258.187l1.27-.668a.178.178 0 0 1 .165 0l1.27.668a.178.178 0 0 0 .257-.187l-.242-1.415a.178.178 0 0 1 .05-.158l1.028-1.001a.178.178 0 0 0 -.098-.303l-1.42-.206a.178.178 0 0 1 -.134-.098z" fill-rule="evenodd"/></svg>