<svg enable-background="new 0 0 1000 1000" viewBox="0 0 1000 1000" xmlns="http://www.w3.org/2000/svg"><g transform="matrix(.1 0 0 -.1 0 268)"><path d="m100-2290.2v-2007.5h521 521v2007.5 2007.5h-521-521z"/><path d="m1433.2-2290.2v-2007.5h459.8 459.7l1.5 1291.9c1.5 709.5 4.6 1279.6 7.7 1267.3s85.8-577.7 182.4-1256.6c96.5-678.9 179.3-1248.9 183.9-1267.3 7.7-35.2 9.2-35.2 329.5-35.2s321.8 0 327.9 35.2c4.6 18.4 53.6 372.4 108.8 784.6 53.6 413.8 131.8 996.1 171.6 1294.9l73.6 544 4.6-1330.2 3.1-1328.6 456.7 3.1 455.1 4.6v1999.8 1999.8l-677.3 4.6-678.9 3.1-7.7-33.7c-3.1-19.9-55.2-421.4-114.9-893.4-130.3-1028.3-114.9-925.6-125.7-896.5-6.1 12.3-65.9 423-134.9 911.8s-128.7 893.4-133.3 901c-3.1 6.1-309.6 10.7-680.4 10.7h-672.7v-2007.4z"/><path d="m4957.9-2291.8v-2009l870.4 7.7c752.4 4.6 884.2 9.2 983.8 32.2 294.2 67.4 455.1 214.5 519.5 473.5 30.7 128.7 47.5 586.9 46 1397.6 0 876.6-16.9 1365.4-52.1 1498.7-82.8 314.2-315.7 502.6-694.2 560.9-196.2 30.6-600.7 47.5-1140.1 47.5h-533.3zm1273.4 1279.6c96.6-49 95-42.9 102.7-1032.9 6.1-934.8-7.7-1347-47.5-1445.1-29.1-65.9-91.9-102.7-203.8-113.4l-82.8-9.2v1322.5 1322.5l92-9.2c50.5-6.1 113.4-21.4 139.4-35.2z"/><path d="m7609-2290.2v-2007.5h467.4 465.9l16.9 61.3c7.7 33.7 23 90.4 32.2 124.1l16.9 64.4 44.4-55.2c58.3-70.5 229.9-183.9 327.9-217.6 240.6-81.2 528.7-24.5 715.7 144.1 93.5 84.3 141 165.5 176.2 300.4 26.1 98.1 27.6 203.8 27.6 1294.9v1187.6l-41.4 88.9c-84.3 179.3-202.3 277.4-395.4 326.4-134.9 33.7-349.4 33.7-472-1.5-102.7-29.1-236-107.3-323.3-188.5-27.6-27.6-53.6-49-56.7-49s-6.1 210-6.1 467.4v467.4h-498-498v-2007.6zm1201.4 744.7c91.9-38.3 91.9-33.7 98.1-997.6 3.1-491.9-1.5-936.3-9.2-1019.1-13.8-128.7-19.9-148.6-55.2-179.3-52.1-44.4-119.5-44.4-170.1 0-65.9 56.7-70.5 151.7-65.9 1169.2 4.6 1009.9 4.6 1000.7 87.3 1031.3 55.3 20.1 56.8 20.1 115-4.5z"/></g></svg>