<svg height="128" width="128" xmlns="http://www.w3.org/2000/svg"><g transform="translate(.999998)"><path d="m95.868706 23.909104v2.138952c-2.821345.501091-4.95688 1.387503-6.406609 2.659237-2.076846 1.888515-4.525558 4.778988-6.132035 8.671426l-32.685473 66.712171h-2.174715l-32.812934-67.579314c-1.528198-3.468501-3.605764-5.588181-4.232696-6.359045-.979614-1.194657-2.1845321-2.129243-3.6147411-2.803761-1.4302343-.674369-3.3600549-1.10794-5.7894682-1.300714v-2.138952h31.9278813v2.138952c-3.683354.346933-5.439393.963567-6.536517 1.849904-1.097187.886486-1.645765 2.023405-1.645739 3.410761-.000026 1.927052.901208 4.933144 2.703708 9.018283l24.232394 45.958555 23.692691-45.38046c1.841592-4.470537 3.369486-7.572977 3.369549-9.307331-.000063-1.117578-.568238-2.187053-1.704504-3.208427-1.136418-1.021227-2.422247-1.743845-5.125892-2.167857-.195985-.038463-.529038-.096273-.999198-.173428v-2.138952z"/><path d="m123.97997 23.909104v2.138952c-2.82134.501091-4.95687 1.387503-6.4066 2.659237-2.07685 1.888515-4.52556 4.778988-6.13204 8.671426l-28.685473 66.712171h-2.174714l-30.312934-67.579314c-1.528199-3.468501-3.605764-5.588181-4.232696-6.359045-.979615-1.194657-2.184532-2.129243-3.614741-2.803761-1.430235-.674369-2.725861-1.10794-5.155275-1.300714v-2.138952h31.293688v2.138952c-3.683354.346933-5.439393.963567-6.536517 1.849904-1.097187.886486-1.645765 2.023405-1.64574 3.410761-.000025 1.927052.901209 4.933144 2.703709 9.018283l21.732394 45.958555 19.692689-45.38046c1.84159-4.470537 3.36949-7.572977 3.36955-9.307331-.00006-1.117578-.56824-2.187053-1.7045-3.208427-1.13642-1.021227-3.05644-1.743845-5.76009-2.167857-.19598-.038463-.52904-.096273-.9992-.173428v-2.138952z"/></g></svg>